<svg width="32" height="32" viewBox="0 0 32 32" fill="none" xmlns="http://www.w3.org/2000/svg">
<path d="M29.5492 10.6652L28.557 9.67413C27.9563 9.0722 26.9813 9.07342 26.3794 9.67413L25.4521 10.6026L28.621 13.7713L29.5492 12.8439C30.15 12.2421 30.15 11.2672 29.5492 10.6652H29.5492Z" fill="currentColor"/>
<path d="M16.7598 19.2868V22.4561H19.9292L27.7568 14.6284L24.5876 11.459L16.7598 19.2868Z" fill="currentColor"/>
<rect x="9.34766" y="9.93457" width="8.9516" height="1.49193" fill="currentColor"/>
<rect x="9.34766" y="15.3984" width="8.9516" height="1.49193" fill="currentColor"/>
<rect x="9.36621" y="20.8628" width="5.47042" height="1.49193" fill="currentColor"/>
<path d="M22.5858 26.5985C22.5858 26.826 22.4027 27.0117 22.1775 27.0129H5.36658C5.14148 27.0117 4.9596 26.826 4.95838 26.5985V5.40259C4.9596 5.17407 5.14149 4.98828 5.36658 4.98718H22.1775C22.4027 4.98828 22.5858 5.17407 22.5858 5.40259V11.3897L24.5441 9.40253V5.40259C24.543 4.07593 23.4861 3.0011 22.1775 3H5.36658C4.05933 3.0011 3.00147 4.07593 3 5.40259V26.5985C3.00146 27.9252 4.05933 28.9989 5.36658 29H22.1775C23.4861 28.9989 24.543 28.7748 24.5441 27.4482V19.9488L22.5858 21.9359V26.5985Z" fill="currentColor"/>
</svg>
