<svg width="109" height="40" viewBox="0 0 109 40" fill="none" xmlns="http://www.w3.org/2000/svg">
<path d="M15.8646 11.5165H25.3418V19.313H28.9509V0.028H25.3418V8.1552H15.8646V0.028H12.228V19.313H15.8646V11.5165Z" fill="#FF963C"/>
<path fill-rule="evenodd" clip-rule="evenodd" d="M37.6932 19.6436C39.7593 19.6436 42.1011 18.9273 43.5338 17.4395L41.3847 15.3182C40.6134 16.1173 38.988 16.5855 37.7482 16.5855C35.3789 16.5855 33.9188 15.3735 33.6983 13.6928H44.3051C44.8286 8.10018 41.9909 5.29 37.4451 5.29C33.0372 5.29 30.227 8.26546 30.227 12.3979C30.227 16.7508 33.0096 19.6436 37.6932 19.6436ZM37.5552 8.26546C39.4838 8.26546 40.8614 9.14705 41.0816 10.9102H33.7535C34.2493 9.14706 35.7371 8.26546 37.5552 8.26546Z" fill="#FF963C"/>
<path fill-rule="evenodd" clip-rule="evenodd" d="M52.8958 19.6983C54.4111 19.6708 56.5324 18.8992 57.3039 17.3014L57.4692 19.2851H60.6374V5.7028H57.414L57.3039 7.57621C56.5324 6.22623 54.7968 5.37223 52.9786 5.37223C49.0113 5.34464 45.898 7.79667 45.898 12.4801C45.898 17.2461 48.8736 19.7259 52.8958 19.6983ZM53.2814 8.37517C58.5711 8.37517 58.5711 16.6125 53.2814 16.6125C51.0499 16.6125 49.2592 15.0699 49.2592 12.4802C49.2592 9.89043 51.0499 8.37517 53.2814 8.37517Z" fill="#FF963C"/>
<path d="M63.0323 0.0275771H66.3659V19.2851H63.0323V0.0275771Z" fill="#FF963C"/>
<path d="M82.6182 12.3424C82.6182 10.3037 83.9955 8.62317 85.9792 8.62317C87.7701 8.62317 89.0649 9.67017 89.0649 12.1495V19.285H92.4261V12.1221C92.4261 8.12733 90.7179 5.51014 86.8608 5.51014C85.318 5.51014 83.8304 5.9784 82.6182 7.54871V0H79.257V19.285H82.6182V12.3424Z" fill="#FF963C"/>
<path d="M70.8417 14.491C70.8417 17.8798 72.7701 19.5602 75.7179 19.4501C76.7374 19.4225 77.5363 19.2572 78.5006 18.8715L77.5638 16.0063C77.068 16.2543 76.4618 16.4196 75.9383 16.4196C74.8915 16.4196 74.1752 15.7859 74.1752 14.491V8.62283H77.9496V5.73013H74.2028V2.418H70.8417V5.73013H68.307V8.62283H70.8417L70.8417 14.491Z" fill="#FF963C"/>
<path d="M105.449 5.372L101.771 13.6346L98.1082 5.372H94.5596L99.9926 17.6288L92.3602 34.7745L79.0009 23.434L0 23.4407V26.5777L77.775 26.5791L93.5334 39.9999L109 5.372H105.449Z" fill="#FF963C"/>
</svg>
